<svg width="543" height="138" viewBox="0 0 543 138" fill="none" xmlns="http://www.w3.org/2000/svg">
<path d="M22.611 102V91.824H31.635V44.976H22.611V34.8H49.971C58.931 34.8 65.779 37.072 70.515 41.616C75.251 46.16 77.619 52.976 77.619 62.064V74.736C77.619 83.824 75.251 90.64 70.515 95.184C65.779 99.728 58.931 102 49.971 102H22.611ZM43.155 91.536H50.067C55.507 91.536 59.539 90.128 62.163 87.312C64.787 84.496 66.099 80.432 66.099 75.12V61.776C66.099 56.336 64.787 52.24 62.163 49.488C59.539 46.672 55.507 45.264 50.067 45.264H43.155V91.536ZM112.663 103.344C107.927 103.344 103.735 102.352 100.087 100.368C96.5028 98.32 93.6868 95.472 91.6388 91.824C89.6548 88.112 88.6628 83.792 88.6628 78.864V77.712C88.6628 72.72 89.6548 68.4 91.6388 64.752C93.6228 61.104 96.4068 58.288 99.9908 56.304C103.575 54.256 107.703 53.232 112.375 53.232C116.983 53.232 121.015 54.256 124.471 56.304C127.927 58.288 130.615 61.104 132.535 64.752C134.455 68.4 135.415 72.656 135.415 77.52V81.456H99.7988C99.9268 85.168 101.239 88.144 103.735 90.384C106.231 92.624 109.303 93.744 112.951 93.744C116.535 93.744 119.191 92.976 120.919 91.44C122.647 89.84 123.959 88.048 124.855 86.064L133.975 90.768C133.079 92.496 131.767 94.352 130.039 96.336C128.375 98.256 126.135 99.92 123.319 101.328C120.503 102.672 116.951 103.344 112.663 103.344ZM99.8948 73.104H124.183C123.927 69.968 122.711 67.472 120.535 65.616C118.423 63.76 115.671 62.832 112.279 62.832C108.759 62.832 105.943 63.76 103.831 65.616C101.719 67.472 100.407 69.968 99.8948 73.104ZM163.356 103.344C160.028 103.344 157.02 102.768 154.332 101.616C151.644 100.4 149.5 98.672 147.9 96.432C146.364 94.192 145.596 91.44 145.596 88.176C145.596 84.976 146.364 82.288 147.9 80.112C149.5 77.936 151.676 76.304 154.428 75.216C157.18 74.064 160.316 73.488 163.836 73.488H177.564V70.608C177.564 68.112 176.796 66.096 175.26 64.56C173.724 62.96 171.324 62.16 168.06 62.16C164.86 62.16 162.428 62.928 160.764 64.464C159.164 65.936 158.108 67.856 157.596 70.224L147.42 66.864C148.188 64.368 149.404 62.096 151.068 60.048C152.796 58 155.068 56.368 157.884 55.152C160.7 53.872 164.156 53.232 168.252 53.232C174.46 53.232 179.324 54.8 182.844 57.936C186.428 61.008 188.22 65.488 188.22 71.376V90C188.22 91.92 189.116 92.88 190.908 92.88H194.94V102H187.164C184.86 102 182.972 101.424 181.5 100.272C180.028 99.12 179.292 97.552 179.292 95.568V95.376H177.66C177.276 96.272 176.604 97.36 175.644 98.64C174.684 99.92 173.212 101.04 171.228 102C169.308 102.896 166.684 103.344 163.356 103.344ZM165.18 94.32C168.828 94.32 171.804 93.296 174.108 91.248C176.412 89.136 177.564 86.32 177.564 82.8V81.84H164.508C162.14 81.84 160.22 82.352 158.748 83.376C157.276 84.4 156.54 85.904 156.54 87.888C156.54 89.808 157.308 91.376 158.844 92.592C160.38 93.744 162.492 94.32 165.18 94.32ZM205.994 102V34.8H217.034V102H205.994Z" fill="#2563EB"/>
<path d="M232.562 102V34.8H261.266C265.49 34.8 269.17 35.536 272.306 37.008C275.442 38.48 277.874 40.56 279.602 43.248C281.394 45.872 282.29 49.04 282.29 52.752V53.808C282.29 57.968 281.298 61.296 279.314 63.792C277.33 66.288 274.93 68.112 272.114 69.264V70.8C274.61 70.928 276.562 71.792 277.97 73.392C279.442 74.992 280.177 77.136 280.177 79.824V102H268.658V81.456C268.658 79.856 268.21 78.576 267.314 77.616C266.482 76.592 265.106 76.08 263.186 76.08H244.178V102H232.562ZM244.178 65.616H260.114C263.442 65.616 266.034 64.752 267.89 63.024C269.81 61.232 270.77 58.864 270.77 55.92V55.056C270.77 52.048 269.842 49.68 267.986 47.952C266.13 46.16 263.506 45.264 260.114 45.264H244.178V65.616ZM317.218 103.344C312.482 103.344 308.29 102.352 304.642 100.368C301.058 98.32 298.242 95.472 296.194 91.824C294.21 88.112 293.218 83.792 293.218 78.864V77.712C293.218 72.72 294.21 68.4 296.194 64.752C298.178 61.104 300.962 58.288 304.546 56.304C308.13 54.256 312.258 53.232 316.93 53.232C321.538 53.232 325.57 54.256 329.026 56.304C332.482 58.288 335.17 61.104 337.09 64.752C339.01 68.4 339.97 72.656 339.97 77.52V81.456H304.354C304.482 85.168 305.794 88.144 308.29 90.384C310.786 92.624 313.858 93.744 317.506 93.744C321.09 93.744 323.746 92.976 325.474 91.44C327.202 89.84 328.514 88.048 329.41 86.064L338.53 90.768C337.634 92.496 336.322 94.352 334.594 96.336C332.93 98.256 330.69 99.92 327.874 101.328C325.058 102.672 321.506 103.344 317.218 103.344ZM304.45 73.104H328.738C328.482 69.968 327.266 67.472 325.09 65.616C322.978 63.76 320.226 62.832 316.834 62.832C313.314 62.832 310.498 63.76 308.386 65.616C306.274 67.472 304.962 69.968 304.45 73.104ZM367.911 103.344C364.583 103.344 361.575 102.768 358.887 101.616C356.199 100.4 354.055 98.672 352.455 96.432C350.919 94.192 350.151 91.44 350.151 88.176C350.151 84.976 350.919 82.288 352.455 80.112C354.055 77.936 356.231 76.304 358.983 75.216C361.735 74.064 364.871 73.488 368.391 73.488H382.119V70.608C382.119 68.112 381.351 66.096 379.815 64.56C378.279 62.96 375.879 62.16 372.615 62.16C369.415 62.16 366.983 62.928 365.319 64.464C363.719 65.936 362.663 67.856 362.151 70.224L351.975 66.864C352.743 64.368 353.959 62.096 355.623 60.048C357.351 58 359.623 56.368 362.439 55.152C365.255 53.872 368.711 53.232 372.807 53.232C379.015 53.232 383.879 54.8 387.399 57.936C390.983 61.008 392.775 65.488 392.775 71.376V90C392.775 91.92 393.671 92.88 395.463 92.88H399.495V102H391.719C389.415 102 387.527 101.424 386.055 100.272C384.583 99.12 383.847 97.552 383.847 95.568V95.376H382.215C381.831 96.272 381.159 97.36 380.199 98.64C379.239 99.92 377.767 101.04 375.783 102C373.863 102.896 371.239 103.344 367.911 103.344ZM369.735 94.32C373.383 94.32 376.359 93.296 378.663 91.248C380.967 89.136 382.119 86.32 382.119 82.8V81.84H369.063C366.695 81.84 364.775 82.352 363.303 83.376C361.831 84.4 361.095 85.904 361.095 87.888C361.095 89.808 361.863 91.376 363.399 92.592C364.935 93.744 367.047 94.32 369.735 94.32ZM428.91 103.344C425.07 103.344 421.486 102.416 418.158 100.56C414.83 98.64 412.174 95.856 410.19 92.208C408.206 88.56 407.214 84.176 407.214 79.056V77.52C407.214 72.4 408.206 68.016 410.19 64.368C412.174 60.72 414.798 57.968 418.062 56.112C421.39 54.192 425.006 53.232 428.91 53.232C431.854 53.232 434.35 53.584 436.398 54.288C438.446 54.992 440.078 55.888 441.294 56.976C442.574 58.064 443.566 59.248 444.27 60.528H445.902V34.8H456.846V102H446.094V95.76H444.462C443.31 97.68 441.55 99.44 439.182 101.04C436.814 102.576 433.39 103.344 428.91 103.344ZM432.174 93.744C436.142 93.744 439.438 92.464 442.062 89.904C444.686 87.28 445.998 83.568 445.998 78.768V77.808C445.998 72.944 444.686 69.232 442.062 66.672C439.502 64.112 436.206 62.832 432.174 62.832C428.206 62.832 424.878 64.112 422.19 66.672C419.566 69.232 418.254 72.944 418.254 77.808V78.768C418.254 83.568 419.566 87.28 422.19 89.904C424.878 92.464 428.206 93.744 432.174 93.744ZM478.03 121.2V111.6H504.238C506.03 111.6 506.926 110.64 506.926 108.72V95.472H505.294C504.782 96.624 503.95 97.776 502.798 98.928C501.646 100.016 500.11 100.944 498.19 101.712C496.27 102.416 493.838 102.768 490.894 102.768C487.246 102.768 484.014 101.968 481.198 100.368C478.382 98.704 476.206 96.4 474.67 93.456C473.134 90.448 472.366 86.96 472.366 82.992V54.576H483.31V82.128C483.31 85.968 484.238 88.816 486.094 90.672C488.014 92.528 490.702 93.456 494.158 93.456C498.062 93.456 501.134 92.176 503.374 89.616C505.678 87.056 506.83 83.376 506.83 78.576V54.576H517.774V111.024C517.774 114.16 516.878 116.624 515.086 118.416C513.294 120.272 510.862 121.2 507.79 121.2H478.03Z" fill="#22C55E"/>
</svg>
